<svg width="299" height="305" viewBox="0 0 299 305" fill="none" xmlns="http://www.w3.org/2000/svg">
<g clip-path="url(#clip0_455_281399)">
<path d="M225.349 264.218C213.041 267.23 200.715 270.192 188.407 273.204C186.749 273.611 185.014 274.016 183.332 273.591C181.162 273.049 179.531 271.248 178.046 269.544C170.001 260.306 161.883 251.171 153.669 242.089C134.756 221.174 115.84 200.262 96.9273 179.347C88.4414 169.963 79.9556 160.578 71.4697 151.194C65.9185 145.058 60.118 139.208 54.5099 133.146C51.6593 130.064 49.2118 126.26 49.1179 122.127C49.0401 118.689 50.5934 115.501 52.1823 112.509C60.7528 96.4099 71.5249 81.5492 84.112 68.434C94.9099 57.1883 108.896 49.18 125.334 51.5745C131.457 52.4691 137.4 54.7427 143.556 55.1981C162.463 56.5974 179.886 40.8242 198.405 45.3658C206.936 47.4525 214.05 53.6433 219.63 60.542C224.847 66.9858 229.113 74.3555 230.989 82.361C232.947 90.7206 232.234 99.3504 232.151 107.874C231.989 124.954 234.769 142.963 245.018 156.968C251.537 165.874 260.65 172.578 267.637 181.125C275.261 190.456 280.194 201.948 281.649 213.771C282.581 221.339 282.055 229.237 278.734 235.954C271.48 250.627 255.344 256.767 240.305 260.519C235.323 261.761 230.338 262.991 225.349 264.211L225.349 264.218Z" fill="#BEE3F8"/>
<path d="M36.249 139.566C45.1965 134.77 54.1721 130.009 63.1196 125.213C104.225 109.33 219.155 223.025 219.155 223.025C219.155 223.025 219.157 223.025 219.161 223.026C233.246 243.831 192.454 283.584 178.619 284.999C173.465 285.524 168.049 284.94 162.998 285.813C147.483 288.495 138.198 304.235 122.07 304.395C114.642 304.473 107.14 301.077 100.655 296.824C94.5945 292.853 89.0216 287.972 85.1715 282.12C81.151 276.01 79.1852 269.156 76.7473 262.511C71.8593 249.196 64.347 235.744 52.0448 226.896C44.2207 221.27 34.9712 217.872 26.8789 212.618C18.0468 206.882 10.73 198.928 6.09377 190.024C3.12612 184.324 1.22619 178.076 1.90542 172.191C3.39006 159.333 14.4762 151.341 25.3874 145.424C29.0026 143.466 32.6238 141.515 36.251 139.572L36.249 139.566Z" fill="#77B5E1"/>
<g filter="url(#filter0_dd_455_281399)">
<g clip-path="url(#clip1_455_281399)">
<rect x="43.5703" y="15.7988" width="102.328" height="71.1424" rx="3.48103" fill="white"/>
<path d="M145.89 15.7988L67.3984 15.7988L67.3984 86.9412L145.89 86.9412L145.89 15.7988Z" fill="#F9F9FA"/>
<path d="M67.3913 15.7998L43.5547 15.7998L43.5547 86.933L67.3913 86.933L67.3913 15.7998Z" fill="#F9F9FA"/>
<path d="M61.0374 15.7998L43.5547 15.7998L43.5547 86.933L61.0374 86.933L61.0374 15.7998Z" fill="#3082CF"/>
<path d="M57.606 40.5449L46.9506 40.5449C46.6974 40.5449 46.4922 40.7502 46.4922 41.0033C46.4922 41.2565 46.6974 41.4618 46.9506 41.4618L57.606 41.4618C57.8592 41.4618 58.0644 41.2565 58.0644 41.0033C58.0644 40.7502 57.8592 40.5449 57.606 40.5449Z" fill="#F5FDFF"/>
<path d="M57.606 45.4873L46.9506 45.4873C46.6974 45.4873 46.4922 45.6925 46.4922 45.9457C46.4922 46.1989 46.6974 46.4041 46.9506 46.4041L57.606 46.4041C57.8592 46.4041 58.0644 46.1989 58.0644 45.9457C58.0644 45.6925 57.8592 45.4873 57.606 45.4873Z" fill="#F5FDFF"/>
<path d="M57.606 35.6035L46.9506 35.6035C46.6974 35.6035 46.4922 35.8088 46.4922 36.0619C46.4922 36.3151 46.6974 36.5204 46.9506 36.5204L57.606 36.5204C57.8592 36.5204 58.0644 36.3151 58.0644 36.0619C58.0644 35.8088 57.8592 35.6035 57.606 35.6035Z" fill="#F5FDFF"/>
<path d="M57.606 30.9189L46.9506 30.9189C46.6974 30.9189 46.4922 31.1242 46.4922 31.3774C46.4922 31.6305 46.6974 31.8358 46.9506 31.8358L57.606 31.8358C57.8592 31.8358 58.0644 31.6305 58.0644 31.3774C58.0644 31.1242 57.8592 30.9189 57.606 30.9189Z" fill="#F5FDFF"/>
<path d="M54.2808 22.9002C54.2808 20.7472 52.5355 19.002 50.3826 19.002C48.2297 19.002 46.4844 20.7472 46.4844 22.9002C46.4844 25.0531 48.2297 26.7984 50.3826 26.7984C52.5355 26.7984 54.2808 25.0531 54.2808 22.9002Z" fill="#DAF0FB"/>
<g filter="url(#filter1_d_455_281399)">
<path d="M135.072 86.9414L67.4062 86.9414L67.4062 23.3359L142.845 23.3359L142.868 86.9414L139.383 86.9414" fill="white"/>
<path d="M73.7144 56.5086L84.6393 56.5086C86.1655 56.5086 87.424 56.3034 87.424 56.0502C87.424 55.797 86.1923 55.5918 84.6393 55.5918L73.7144 55.5918C72.1882 55.5918 70.9297 55.797 70.9297 56.0502C70.9297 56.3034 72.1614 56.5086 73.7144 56.5086Z" fill="#64B4ED"/>
<path d="M127.279 56.5086L138.252 56.5086C138.861 56.5086 139.351 56.3034 139.351 56.0502C139.351 55.797 138.861 55.5918 138.252 55.5918L127.279 55.5918C126.669 55.5918 126.18 55.797 126.18 56.0502C126.18 56.3034 126.669 56.5086 127.279 56.5086Z" fill="#64B4ED"/>
<path d="M71.5219 60.6131L93.6843 60.6131C94.0089 60.6131 94.2765 60.4079 94.2765 60.1547C94.2765 59.9015 94.0146 59.6963 93.6843 59.6963L71.5219 59.6963C71.1973 59.6963 70.9297 59.9015 70.9297 60.1547C70.9297 60.4079 71.1916 60.6131 71.5219 60.6131V60.6131Z" fill="#64B4ED"/>
<path d="M102.06 60.6131L138.253 60.6131C138.863 60.6131 139.352 60.4079 139.352 60.1547C139.352 59.9015 138.863 59.6963 138.253 59.6963L102.06 59.6963C101.451 59.6963 100.961 59.9015 100.961 60.1547C100.961 60.4079 101.451 60.6131 102.06 60.6131Z" fill="#64B4ED"/>
</g>
<g filter="url(#filter2_d_455_281399)">
<path d="M142.869 65.1523L67.4062 65.1523L67.4062 88.8984L142.869 88.8984L142.869 65.1523Z" fill="#BEE3F8"/>
<path d="M83.6906 80.5778L71.7999 80.5778C71.3193 80.5778 70.9297 80.1882 70.9297 79.7075L70.9297 69.674C70.9297 69.1933 71.3193 68.8037 71.7999 68.8037L84.2866 68.8037C84.7671 68.8037 85.1566 69.1931 85.1568 69.6736L85.1605 79.9206C85.1607 80.2835 84.8665 80.5778 84.5036 80.5778V80.5778" fill="white"/>
<path d="M72.5955 71.9039L74.6558 71.9039C74.9436 71.9039 75.1809 71.7628 75.1809 71.5887C75.1809 71.4145 74.9487 71.2734 74.6558 71.2734L72.5955 71.2734C72.3076 71.2734 72.0703 71.4145 72.0703 71.5887C72.0703 71.7628 72.3026 71.9039 72.5955 71.9039Z" fill="#64B4ED"/>
<path d="M81.7463 71.9039L83.8157 71.9039C83.9306 71.9039 84.023 71.7628 84.023 71.5887C84.023 71.4145 83.9306 71.2734 83.8157 71.2734L81.7463 71.2734C81.6314 71.2734 81.5391 71.4145 81.5391 71.5887C81.5391 71.7628 81.6314 71.9039 81.7463 71.9039Z" fill="#64B4ED"/>
<path d="M76.9885 74.5894L83.8141 74.5894C83.929 74.5894 84.0214 74.4483 84.0214 74.2742C84.0214 74.1001 83.929 73.959 83.8141 73.959L76.9885 73.959C76.8736 73.959 76.7812 74.1001 76.7812 74.2742C76.7812 74.4483 76.8736 74.5894 76.9885 74.5894Z" fill="#64B4ED"/>
<path d="M72.182 77.2779L74.5714 77.2779C74.6326 77.2779 74.6831 77.1368 74.6831 76.9627C74.6831 76.7886 74.6337 76.6475 74.5714 76.6475L72.182 76.6475C72.1208 76.6475 72.0703 76.7886 72.0703 76.9627C72.0703 77.1368 72.1197 77.2779 72.182 77.2779Z" fill="#64B4ED"/>
<path d="M79.3479 77.2779L83.812 77.2779C83.9269 77.2779 84.0193 77.1368 84.0193 76.9627C84.0193 76.7886 83.9269 76.6475 83.812 76.6475L79.3479 76.6475C79.233 76.6475 79.1406 76.7886 79.1406 76.9627C79.1406 77.1368 79.233 77.2779 79.3479 77.2779Z" fill="#64B4ED"/>
<path d="M101.753 80.5778L89.8624 80.5778C89.3818 80.5778 88.9922 80.1882 88.9922 79.7075L88.9922 69.674C88.9922 69.1933 89.3818 68.8037 89.8624 68.8037L102.349 68.8037C102.83 68.8037 103.219 69.1931 103.219 69.6736L103.223 79.9206C103.223 80.2835 102.929 80.5778 102.566 80.5778V80.5778" fill="white"/>
<path d="M90.697 71.9039L92.7573 71.9039C93.0452 71.9039 93.2825 71.7628 93.2825 71.5887C93.2825 71.4145 93.0502 71.2734 92.7573 71.2734L90.697 71.2734C90.4092 71.2734 90.1719 71.4145 90.1719 71.5887C90.1719 71.7628 90.4042 71.9039 90.697 71.9039Z" fill="#64B4ED"/>
<path d="M99.8479 71.9039L101.917 71.9039C102.032 71.9039 102.125 71.7628 102.125 71.5887C102.125 71.4145 102.032 71.2734 101.917 71.2734L99.8479 71.2734C99.733 71.2734 99.6406 71.4145 99.6406 71.5887C99.6406 71.7628 99.733 71.9039 99.8479 71.9039Z" fill="#64B4ED"/>
<path d="M90.2836 74.5894L94.4631 74.5894C94.5243 74.5894 94.5748 74.4483 94.5748 74.2742C94.5748 74.1001 94.5254 73.959 94.4631 73.959L90.2836 73.959C90.2223 73.959 90.1719 74.1001 90.1719 74.2742C90.1719 74.4483 90.2213 74.5894 90.2836 74.5894V74.5894Z" fill="#64B4ED"/>
<path d="M90.2836 77.2779L92.6729 77.2779C92.7342 77.2779 92.7846 77.1368 92.7846 76.9627C92.7846 76.7886 92.7352 76.6475 92.6729 76.6475L90.2836 76.6475C90.2223 76.6475 90.1719 76.7886 90.1719 76.9627C90.1719 77.1368 90.2213 77.2779 90.2836 77.2779Z" fill="#64B4ED"/>
<path d="M93.1273 77.2779L95.739 77.2779C95.8002 77.2779 95.8507 77.1368 95.8507 76.9627C95.8507 76.7886 95.8013 76.6475 95.739 76.6475L93.1273 76.6475C93.0661 76.6475 93.0156 76.7886 93.0156 76.9627C93.0156 77.1368 93.065 77.2779 93.1273 77.2779Z" fill="#64B4ED"/>
<path d="M97.4494 77.2779L101.914 77.2779C102.028 77.2779 102.121 77.1368 102.121 76.9627C102.121 76.7886 102.028 76.6475 101.914 76.6475L97.4494 76.6475C97.3345 76.6475 97.2422 76.7886 97.2422 76.9627C97.2422 77.1368 97.3345 77.2779 97.4494 77.2779Z" fill="#64B4ED"/>
<path d="M119.831 80.5778L107.941 80.5778C107.46 80.5778 107.07 80.1882 107.07 79.7075L107.07 69.674C107.07 69.1933 107.46 68.8037 107.941 68.8037L120.427 68.8037C120.908 68.8037 121.297 69.1931 121.297 69.6736L121.301 79.9206C121.301 80.2835 121.007 80.5778 120.644 80.5778V80.5778" fill="white"/>
<path d="M117.895 71.9039L119.964 71.9039C120.079 71.9039 120.171 71.7628 120.171 71.5887C120.171 71.4145 120.079 71.2734 119.964 71.2734L117.895 71.2734C117.78 71.2734 117.687 71.4145 117.687 71.5887C117.687 71.7628 117.78 71.9039 117.895 71.9039Z" fill="#64B4ED"/>
<path d="M113.121 74.5894L119.947 74.5894C120.062 74.5894 120.154 74.4483 120.154 74.2742C120.154 74.1001 120.062 73.959 119.947 73.959L113.121 73.959C113.006 73.959 112.914 74.1001 112.914 74.2742C112.914 74.4483 113.006 74.5894 113.121 74.5894Z" fill="#64B4ED"/>
<path d="M108.315 77.2779L110.704 77.2779C110.765 77.2779 110.816 77.1368 110.816 76.9627C110.816 76.7886 110.766 76.6475 110.704 76.6475L108.315 76.6475C108.254 76.6475 108.203 76.7886 108.203 76.9627C108.203 77.1368 108.253 77.2779 108.315 77.2779Z" fill="#64B4ED"/>
<path d="M111.159 77.2779L113.77 77.2779C113.831 77.2779 113.882 77.1368 113.882 76.9627C113.882 76.7886 113.833 76.6475 113.77 76.6475L111.159 76.6475C111.097 76.6475 111.047 76.7886 111.047 76.9627C111.047 77.1368 111.096 77.2779 111.159 77.2779Z" fill="#64B4ED"/>
<path d="M115.481 77.2779L119.945 77.2779C120.06 77.2779 120.152 77.1368 120.152 76.9627C120.152 76.7886 120.06 76.6475 119.945 76.6475L115.481 76.6475C115.366 76.6475 115.273 76.7886 115.273 76.9627C115.273 77.1368 115.366 77.2779 115.481 77.2779Z" fill="#64B4ED"/>
<path d="M137.886 80.5778L125.995 80.5778C125.515 80.5778 125.125 80.1882 125.125 79.7075L125.125 69.674C125.125 69.1933 125.515 68.8037 125.995 68.8037L138.482 68.8037C138.962 68.8037 139.352 69.1931 139.352 69.6736L139.356 79.9206C139.356 80.2835 139.062 80.5778 138.699 80.5778V80.5778" fill="white"/>
<path d="M135.934 71.9039L138.003 71.9039C138.118 71.9039 138.21 71.7628 138.21 71.5887C138.21 71.4145 138.118 71.2734 138.003 71.2734L135.934 71.2734C135.819 71.2734 135.727 71.4145 135.727 71.5887C135.727 71.7628 135.819 71.9039 135.934 71.9039Z" fill="#64B4ED"/>
<path d="M131.192 74.5894L138.017 74.5894C138.132 74.5894 138.224 74.4483 138.224 74.2742C138.224 74.1001 138.132 73.959 138.017 73.959L131.192 73.959C131.077 73.959 130.984 74.1001 130.984 74.2742C130.984 74.4483 131.077 74.5894 131.192 74.5894Z" fill="#64B4ED"/>
<path d="M126.385 77.2779L128.775 77.2779C128.836 77.2779 128.886 77.1368 128.886 76.9627C128.886 76.7886 128.837 76.6475 128.775 76.6475L126.385 76.6475C126.324 76.6475 126.273 76.7886 126.273 76.9627C126.273 77.1368 126.323 77.2779 126.385 77.2779Z" fill="#64B4ED"/>
<path d="M129.229 77.2779L131.841 77.2779C131.902 77.2779 131.952 77.1368 131.952 76.9627C131.952 76.7886 131.903 76.6475 131.841 76.6475L129.229 76.6475C129.168 76.6475 129.117 76.7886 129.117 76.9627C129.117 77.1368 129.167 77.2779 129.229 77.2779Z" fill="#64B4ED"/>
<path d="M133.551 77.2779L138.015 77.2779C138.13 77.2779 138.222 77.1368 138.222 76.9627C138.222 76.7886 138.13 76.6475 138.015 76.6475L133.551 76.6475C133.436 76.6475 133.344 76.7886 133.344 76.9627C133.344 77.1368 133.436 77.2779 133.551 77.2779Z" fill="#64B4ED"/>
</g>
<path d="M117.028 19.9159L108.114 19.9159C107.738 19.9159 107.43 19.7118 107.43 19.4574C107.43 19.203 107.734 18.999 108.114 18.999L117.028 18.999C117.404 18.999 117.713 19.203 117.713 19.4574C117.713 19.7118 117.408 19.9159 117.028 19.9159Z" fill="#DAF0FB"/>
<path d="M129.606 19.9159L120.692 19.9159C120.316 19.9159 120.008 19.7118 120.008 19.4574C120.008 19.203 120.312 18.999 120.692 18.999L129.606 18.999C129.982 18.999 130.291 19.203 130.291 19.4574C130.291 19.7118 129.986 19.9159 129.606 19.9159Z" fill="#DAF0FB"/>
<path d="M142.177 19.9159L133.262 19.9159C132.886 19.9159 132.578 19.7118 132.578 19.4574C132.578 19.203 132.883 18.999 133.262 18.999L142.177 18.999C142.553 18.999 142.861 19.203 142.861 19.4574C142.861 19.7118 142.556 19.9159 142.177 19.9159Z" fill="#DAF0FB"/>
<path d="M119.575 37.325L118.492 38.527L120.917 34.4025L122.117 32.9648L119.575 37.325Z" fill="#6A582D"/>
<path d="M119.575 37.325L118.492 38.527L120.917 34.4025L122.117 32.9648L119.575 37.325Z" fill="#F8D062" fill-opacity="0.8"/>
<path d="M125.429 47.5297L124.041 48.2132L120.039 45.4792L121.216 44.6543L125.429 47.5297Z" fill="#6A582D"/>
<path d="M125.429 47.5297L124.041 48.2132L120.039 45.4792L121.216 44.6543L125.429 47.5297Z" fill="#F8D062" fill-opacity="0.7"/>
<path d="M117.854 41.5428L116.841 42.5563L113.734 38.7381L114.558 37.5361L117.854 41.5428Z" fill="#6A582D"/>
<path d="M117.854 41.5428L116.841 42.5563L113.734 38.7381L114.558 37.5361L117.854 41.5428Z" fill="#F8D062" fill-opacity="0.7"/>
<path d="M121.219 44.6543L120.042 45.4792L115.617 47.4118L116.559 46.6576L121.219 44.6543Z" fill="#6A582D"/>
<path d="M121.219 44.6543L120.042 45.4792L115.617 47.4118L116.559 46.6576L121.219 44.6543Z" fill="#F8D062" fill-opacity="0.8"/>
<path d="M116.559 46.6583L115.617 47.4125L116.841 42.5574L117.853 41.5439L116.559 46.6583Z" fill="#6A582D"/>
<path d="M116.559 46.6583L115.617 47.4125L116.841 42.5574L117.853 41.5439L116.559 46.6583Z" fill="#F8D062" fill-opacity="0.8"/>
<path d="M122.118 32.9648L123.931 37.7964L128.733 39.0691L124.967 42.298L125.437 47.5303L121.224 44.6549L116.563 46.6582L117.858 41.5438L114.562 37.5372L119.576 37.325L122.118 32.9648Z" fill="#F8D062"/>
<path d="M122.118 32.9648L123.931 37.7964L128.733 39.0691L124.967 42.298L125.437 47.5303L121.224 44.6549L116.563 46.6582L117.858 41.5438L114.562 37.5372L119.576 37.325L122.118 32.9648Z" fill="#F8D062"/>
<path d="M113.237 34.5684L112.813 35.8411L108.953 39.5885L109.165 38.5043L113.237 34.5684Z" fill="#DCB857"/>
<path d="M100.924 38.5043L101.136 39.5885L97.2518 35.8411L96.8281 34.5684L100.924 38.5043Z" fill="#CDAC52"/>
<path d="M110.178 44.1605L109.919 44.9618L105.047 42.4164L105.047 41.4736L110.178 44.1605Z" fill="#CDAC52"/>
<path d="M105.046 41.4736L105.046 42.4164L100.173 44.9618L99.9141 44.1605L105.046 41.4736Z" fill="#DCB857"/>
<path d="M105.043 28.7461L107.562 33.7426L113.235 34.5676L109.162 38.5035L110.175 44.16L105.043 41.4732L99.9117 44.16L100.924 38.5035L96.8281 34.5676L102.501 33.7426L105.043 28.7461Z" fill="#F8D062"/>
<path d="M88.1953 32.9648L89.3958 34.4025L91.8203 38.527L90.7375 37.325L88.1953 32.9648Z" fill="#6A582D"/>
<path d="M88.1953 32.9648L89.3958 34.4025L91.8203 38.527L90.7375 37.325L88.1953 32.9648Z" fill="#F8D062" fill-opacity="0.9"/>
<path d="M89.0964 44.6543L90.2498 45.4792L86.2482 48.2132L84.8594 47.5297L89.0964 44.6543Z" fill="#6A582D"/>
<path d="M89.0964 44.6543L90.2498 45.4792L86.2482 48.2132L84.8594 47.5297L89.0964 44.6543Z" fill="#F8D062" fill-opacity="0.8"/>
<path d="M95.7876 37.5381L96.6115 38.7401L93.4808 42.5582L92.4922 41.5448L95.7876 37.5381Z" fill="#6A582D"/>
<path d="M95.7876 37.5381L96.6115 38.7401L93.4808 42.5582L92.4922 41.5448L95.7876 37.5381Z" fill="#F8D062" fill-opacity="0.8"/>
<path d="M92.4922 41.5439L93.4808 42.5574L94.7048 47.4125L93.7633 46.6583L92.4922 41.5439Z" fill="#6A582D"/>
<path d="M92.4922 41.5439L93.4808 42.5574L94.7048 47.4125L93.7633 46.6583L92.4922 41.5439Z" fill="#F8D062" fill-opacity="0.9"/>
<path d="M93.7544 46.6576L94.696 47.4118L90.2472 45.4792L89.0938 44.6543L93.7544 46.6576Z" fill="#6A582D"/>
<path d="M93.7544 46.6576L94.696 47.4118L90.2472 45.4792L89.0938 44.6543L93.7544 46.6576Z" fill="#F8D062" fill-opacity="0.7"/>
<path d="M88.2004 32.9648L90.7426 37.325L95.7799 37.5372L92.4845 41.5438L93.7556 46.6582L89.0949 44.6549L84.8579 47.5303L85.3287 42.298L81.5625 39.0691L86.3644 37.7964L88.2004 32.9648Z" fill="#F8D062"/>
</g>
</g>
<g clip-path="url(#clip2_455_281399)">
<path d="M135.744 64.4922C135.491 61.5541 131.248 59.9563 128.286 59.2358C125.324 58.5154 121.814 58.0364 121.766 59.6343C121.722 61.2362 127.163 62.2907 127.163 62.2907L135.744 64.4922V64.4922Z" fill="#E9B6A6"/>
<g style="mix-blend-mode:multiply" opacity="0.4">
<path d="M135.744 64.4922C135.491 61.5541 131.248 59.9563 128.286 59.2358C125.324 58.5154 121.814 58.0364 121.766 59.6343C121.722 61.2362 127.163 62.2907 127.163 62.2907L135.744 64.4922V64.4922Z" fill="#E9B6A6"/>
</g>
<path d="M155.579 118.906C148.571 130.663 151.65 147.829 153.458 155.733H197.686C202.991 127.696 191.251 117.779 191.251 117.779L155.579 118.91V118.906Z" fill="#2B6BB1"/>
<g style="mix-blend-mode:multiply" opacity="0.8">
<path d="M174.152 130.667C179.022 130.779 183.904 129.846 188.34 127.664C189.732 126.98 191.419 127.745 191.781 129.258C193.87 137.948 193.914 148.138 189.374 155.733H197.693C202.998 127.696 191.258 117.779 191.258 117.779L155.586 118.91C154.737 120.331 154.04 121.832 153.469 123.39C158.077 126.964 163.78 129.375 169.721 130.28L174.156 130.671L174.152 130.667Z" fill="#2A4365"/>
</g>
<path d="M155.608 76.4145C153.483 80.9465 151.209 84.5044 151.209 84.5044C149.177 78.4068 135.742 64.4971 135.742 64.4971L130.445 67.6566C130.445 67.6566 146.138 98.6678 151.209 99.3479C154.405 99.7746 160.233 93.6367 163.457 87.9255C161.968 83.3091 159.851 78.6644 155.608 76.4145V76.4145Z" fill="#E9B6A6"/>
<g style="mix-blend-mode:multiply" opacity="0.6">
<path d="M163.464 87.9231C161.975 83.3066 159.858 78.662 155.616 76.4121C155.097 77.5189 154.573 78.5614 154.07 79.5152C157.161 84.9367 159.121 91.2234 156.147 97.0111C158.779 94.7814 161.573 91.2798 163.464 87.9231Z" fill="#E9B6A6"/>
</g>
<path d="M172.069 55.6914H168.909C160.691 56.2428 156.932 70.9656 153.555 76.4152C157.797 78.661 161.971 83.3097 163.46 87.9262C165.351 84.5735 166.651 81.8849 166.651 81.8849L172.069 55.6954V55.6914Z" fill="#2A4365"/>
<path d="M153.309 76.4149C159.402 79.6991 163.898 88.5336 163.898 88.5336L165.138 86.3522C164.071 79.0914 154.83 73.3037 154.83 73.3037L153.305 76.4189L153.309 76.4149Z" fill="#F5FDFF"/>
<path d="M191.4 19.8216C184.236 13.5429 194.302 2.25731 201.249 3.22326C201.249 3.22326 197.324 4.15299 196.346 5.65425C196.346 5.65425 201.341 1.40002 206.586 8.12951C211.83 14.859 205.249 22.9449 200.669 23.1179C196.089 23.291 191.396 19.8216 191.396 19.8216H191.4Z" fill="#755C42"/>
<g style="mix-blend-mode:multiply">
<path d="M195.044 4.96594C189.973 8.25824 186.258 15.3258 191.393 19.8215C191.393 19.8215 196.086 23.2909 200.666 23.1179C203.037 23.0293 205.943 20.8157 207.468 17.7689C199.721 22.003 195.652 11.2205 195.048 4.96191L195.044 4.96594Z" fill="#755C42"/>
</g>
<path d="M187.109 15.8175L187.597 15.2617C187.963 15.4591 187.871 15.8255 187.871 15.8255L187.109 15.8175V15.8175Z" fill="black"/>
<path d="M184.906 17.177L185.53 16.7783C185.828 17.0683 185.639 17.3945 185.639 17.3945L184.906 17.177V17.177Z" fill="black"/>
<path d="M164.267 6.65569C156.379 6.36993 153.32 24.4776 163.168 29.8265L165.648 13.1477L164.267 6.65569V6.65569Z" fill="#755C42"/>
<g style="mix-blend-mode:multiply" opacity="0.6">
<path d="M160.252 17.2819C159.556 18.8676 159.902 20.8478 160.252 22.4296C157.656 18.7388 157.165 13.9453 159.363 9.70312C155.543 14.4202 155.805 25.6293 163.271 29.8272L163.915 24.4822C161.757 23.1098 160.256 20.0791 160.256 17.2819H160.252Z" fill="#755C42"/>
</g>
<path d="M212.689 79.1398C210.435 72.8852 206.494 59.6918 203.009 57.9531C203.009 57.9531 194.428 57.9531 192.4 69.6895C191.12 77.0831 195.845 82.5528 195.845 82.5528L200.642 89.6888C203.001 84.8429 207.65 81.3132 212.693 79.1398H212.689Z" fill="#2A4365"/>
<g style="mix-blend-mode:multiply" opacity="0.2">
<path d="M193.463 65.7158C193.016 66.8629 192.646 68.175 192.384 69.6883C191.104 77.0819 195.829 82.5516 195.829 82.5516L200.627 89.6876C202.027 86.8099 204.241 84.399 206.861 82.455C199.822 79.7182 194.167 73.5843 193.463 65.7158Z" fill="#2A4365"/>
</g>
<path d="M190.205 52.376C194.644 55.6884 203 57.9503 203 57.9503C192.161 61.782 193.465 73.7518 197.695 79.8453C197.695 79.8453 187.649 92.9421 188.776 104.678C189.903 116.419 195.835 120.259 195.835 120.259C177.716 134.482 158.976 128.159 153.555 120.259C156.038 111.678 164.12 95.3811 161.431 90.5473C158.747 85.7135 156.94 78.2636 158.521 75.1041C160.103 71.9446 169.135 58.6225 168.909 55.6884L174.854 54.7868L190.209 52.38L190.205 52.376Z" fill="#2A4365"/>
<g style="mix-blend-mode:multiply" opacity="0.2">
<path d="M161.137 90.0064C161.234 90.1915 161.331 90.3726 161.431 90.5497C164.116 95.3835 156.038 111.68 153.555 120.261C158.972 128.162 177.712 134.485 195.835 120.261C195.835 120.261 189.907 116.421 188.776 104.681C187.649 92.9404 197.695 79.8477 197.695 79.8477C195.896 77.2557 194.632 73.6052 194.6 69.9668C192.12 74.2412 190.893 79.6787 188.917 84.3676C183.998 96.9331 171.735 95.3513 161.141 90.0064H161.137Z" fill="#2A4365"/>
</g>
<path d="M191.257 33.1104C188.468 39.9807 190.202 52.3771 190.202 52.3771C187.944 55.9914 180.603 57.7945 178.631 57.9475C176.659 58.0964 174.852 54.788 174.852 54.788C178.313 52.2282 178.631 43.8003 178.631 43.8003L191.257 33.1144V33.1104Z" fill="#E9B6A6"/>
<g style="mix-blend-mode:multiply" opacity="0.6">
<path d="M189.834 39.9646C190.039 37.5055 190.462 35.0825 191.263 33.1104L178.637 43.7962C178.637 43.7962 178.391 50.3003 175.984 53.6168C182.267 51.6889 186.735 45.7161 189.834 39.9646Z" fill="#E9B6A6"/>
</g>
<path d="M167.964 11.2133C161.633 14.8397 162.015 21.2633 162.575 26.89C162.841 29.5423 163.388 35.5232 166.302 40.3208C169.574 45.706 173.587 47.4004 175.768 47.3159C176.863 47.3843 180.771 46.193 184.901 42.8886C187.271 40.9929 189.642 38.2319 190.733 36.0142C192.556 36.1913 195.912 33.7241 195.607 28.6086C195.361 24.5636 192.258 25.3364 192.258 25.3364C192.258 25.3364 192.085 15.9867 187.404 11.6118C182.727 7.24081 174.042 7.73184 167.964 11.2133V11.2133Z" fill="#E9B6A6"/>
<path d="M197.249 14.2991C195.981 9.30833 193.031 5.99591 190.322 3.86275C185.355 -0.049366 169.506 -3.45033 164.273 6.65598L165.654 12.9548C180.256 3.47235 169.168 25.1138 186.217 26.5466C188.273 26.9249 188.241 33.1111 188.241 33.1111C188.241 33.1111 191.896 29.3237 192.037 25.9509C196.359 26.4379 195.43 32.6362 191.562 35.3247C189.207 36.9628 189.006 40.1022 189.734 41.4223C196.094 39.426 202.191 27.4924 197.253 14.2991H197.249Z" fill="#755C42"/>
<g style="mix-blend-mode:multiply" opacity="0.6">
<path d="M197.251 14.2982C197.171 13.9803 197.082 13.6663 196.985 13.3605C197.114 15.1595 197.006 17.015 196.627 18.9107C196.205 21.4423 194.518 23.1287 191.987 21.8649C191.141 21.4423 190.723 20.1785 190.3 19.3333C190.3 21.0197 189.507 23.5473 185.873 24.5374C182.234 25.5234 177.228 19.0556 174.764 11.8833C173.561 8.37371 168.087 7.31518 165.656 13.1471C180.017 3.25414 169.58 25.2417 186.219 26.5457C188.276 26.9241 188.244 33.1102 188.244 33.1102C188.244 33.1102 191.898 29.3229 192.039 25.9501C196.362 26.4371 195.432 32.6353 191.564 35.3239C189.209 36.962 189.008 40.1013 189.737 41.4215C196.096 39.4252 202.194 27.4916 197.255 14.2982H197.251Z" fill="#755C42"/>
</g>
<path d="M191.2 36.7098C191.793 36.7098 192.274 36.2287 192.274 35.6352C192.274 35.0417 191.793 34.5605 191.2 34.5605C190.606 34.5605 190.125 35.0417 190.125 35.6352C190.125 36.2287 190.606 36.7098 191.2 36.7098Z" fill="#DA3E3E"/>
<g style="mix-blend-mode:multiply" opacity="0.6">
<path d="M193.738 29.4935C193.118 32.5886 191.307 32.9026 190.715 32.9026C190.124 32.9026 190.856 30.7533 190.856 30.1617C190.856 29.57 191.689 27.3926 192.281 27.3926C192.872 27.3926 194.02 28.0848 193.738 29.4935Z" fill="#E9B6A6"/>
</g>
<path d="M190.544 51.5283C190.544 51.5283 186.559 56.6197 178.719 57.9358C178.719 57.9358 180.152 64.1944 182.993 64.1944C185.835 64.1944 193.079 55.0259 193.079 53.6172C193.079 52.2085 190.54 51.5283 190.54 51.5283H190.544Z" fill="#F5FDFF"/>
<path d="M178.713 57.9358C178.713 57.9358 175.494 63.5142 173.376 62.2303C170.889 60.721 173.409 55.0581 173.92 53.6172C174.427 52.1763 177.534 51.5283 177.534 51.5283C177.534 51.5283 176.777 53.4119 175.924 54.2169C175.747 56.0683 178.713 57.9358 178.713 57.9358Z" fill="#F5FDFF"/>
<g style="mix-blend-mode:multiply" opacity="0.6">
<path d="M166.469 8.67693C171.902 4.92177 176.305 6.84161 180.632 11.0717C184.303 14.5894 188.082 19.0851 193.713 17.0807C188.134 19.8136 183.767 15.2132 180.077 11.6593C175.83 7.49765 172.103 5.69051 166.469 8.6729V8.67693Z" fill="#755C42"/>
</g>
<g style="mix-blend-mode:multiply" opacity="0.6">
<path d="M165.224 11.2969C162.008 11.4136 162.173 18.4409 162.173 18.4409C162.173 18.4409 162.644 15.3982 165.643 12.8303L165.224 11.2969V11.2969Z" fill="#755C42"/>
</g>
<path d="M178.099 63.3553C178.099 64.0274 177.761 64.5748 177.343 64.5748C176.924 64.5748 176.586 64.0314 176.586 63.3553C176.586 62.6791 176.924 62.1357 177.343 62.1357C177.761 62.1357 178.099 62.6831 178.099 63.3553Z" fill="#DAF0FB"/>
<path d="M176.68 66.5537V69.7856" stroke="#2A4365" stroke-width="0.201241" stroke-miterlimit="10"/>
<g style="mix-blend-mode:multiply" opacity="0.2">
<path d="M167.137 60.4307C163.531 70.6698 156.456 72.7224 158.231 80.9129L156.057 78.7074C155.872 74.3324 166.272 65.5422 167.133 60.4307H167.137Z" fill="#2A4365"/>
</g>
<path opacity="0.6" d="M183.167 121.834L182.453 122.532L182.602 122.685L183.316 121.986L183.167 121.834Z" fill="white"/>
<path opacity="0.6" d="M183.853 122.509L182.828 123.512L182.977 123.664L184.002 122.661L183.853 122.509Z" fill="white"/>
<path opacity="0.6" d="M184.518 123.183L183.805 123.882L183.954 124.034L184.667 123.335L184.518 123.183Z" fill="white"/>
<path opacity="0.6" d="M185.104 123.801L184.391 124.5L184.54 124.652L185.253 123.954L185.104 123.801Z" fill="white"/>
<path opacity="0.6" d="M185.782 124.493L184.758 125.497L184.907 125.649L185.931 124.646L185.782 124.493Z" fill="white"/>
<path opacity="0.6" d="M186.44 125.168L185.727 125.867L185.876 126.02L186.589 125.321L186.44 125.168Z" fill="white"/>
<path opacity="0.6" d="M187.182 125.929L186.469 126.626L186.32 126.477L187.033 125.776L187.182 125.929Z" fill="white"/>
<path opacity="0.6" d="M187.712 126.455L186.688 127.458L186.837 127.611L187.861 126.608L187.712 126.455Z" fill="white"/>
<path opacity="0.6" d="M188.526 127.291L187.809 127.991L187.664 127.838L188.377 127.138L188.526 127.291Z" fill="white"/>
<path opacity="0.6" d="M189.116 127.899L188.399 128.6L188.25 128.447L188.967 127.75L189.116 127.899Z" fill="white"/>
<path opacity="0.6" d="M189.641 128.443L188.617 129.446L188.767 129.599L189.791 128.595L189.641 128.443Z" fill="white"/>
<path d="M218.688 97.8395C218.515 95.8472 215.142 88.0109 212.083 79.7842C206.855 81.4505 204.09 83.6319 201.268 88.2242L206.545 97.8878C203.494 100.762 192.297 115.609 186.586 118.901L190.49 124.866C190.49 124.866 219.271 104.589 218.688 97.8395Z" fill="#E9B6A6"/>
<g style="mix-blend-mode:multiply" opacity="0.6">
<path d="M216.568 91.3877C215.308 88.1115 213.658 83.9982 212.092 79.7842C206.864 81.4505 204.099 83.6319 201.273 88.2242L202.839 91.0899C207.121 89.5645 212.571 89.1298 216.568 91.3918V91.3877Z" fill="#E9B6A6"/>
</g>
<path d="M201.792 91.0321C203.068 86.4156 214.156 80.9177 214.156 80.9177L212.615 77.3799C205 79.8149 200.227 88.9915 200.227 88.9915L201.796 91.0361L201.792 91.0321Z" fill="#F5FDFF"/>
<path d="M186.586 118.902C185.206 119.683 177.478 126.767 177.16 127.407C176.842 128.047 177.921 131.206 178.001 132.41C178.082 133.609 183.93 137.332 185.451 137.734C186.973 138.133 188.768 135.815 188.768 135.815C188.768 135.815 186.948 134.088 186.707 134.088C186.465 134.088 191.078 128.658 190.49 124.871C190.309 123.225 186.586 118.906 186.586 118.906V118.902Z" fill="#E9B6A6"/>
<g style="mix-blend-mode:multiply" opacity="0.3">
<path d="M186.713 134.084C186.66 134.084 186.741 134.04 187.075 133.545C183.243 135.122 179.476 130.973 177.109 127.789C177.121 128.86 177.938 131.363 178.007 132.406C178.087 133.605 183.935 137.328 185.457 137.73C186.978 138.129 188.773 135.811 188.773 135.811C188.773 135.811 186.954 134.084 186.713 134.084V134.084Z" fill="#E9B6A6"/>
</g>
<path d="M135.742 64.4935C135.742 59.8569 125.403 61.2978 125.882 61.3783C125.882 61.3783 107.629 62.2355 107.79 63.9179C107.951 65.6003 129.017 65.0368 130.446 67.6529L135.742 64.4935Z" fill="#E9B6A6"/>
<g style="mix-blend-mode:multiply" opacity="0.4">
<path d="M121.274 62.7589C117.793 62.7589 113.389 62.9199 112.75 63.7208C112.11 64.5218 119.234 65.4797 119.234 65.4797C119.234 65.4797 112.311 65.1617 112.391 63.6806C112.472 62.1994 121.274 62.7589 121.274 62.7589Z" fill="#E9B6A6"/>
</g>
<path d="M161.891 24.3082C162.833 22.1272 167.005 22.3405 167.005 22.3405" stroke="#6F5A47" stroke-width="0.833137" stroke-linecap="round" stroke-linejoin="round"/>
<path d="M173.769 21.7505C177.59 19.511 183.528 23.2868 183.528 23.2868" stroke="#6F5A47" stroke-width="0.833137" stroke-linecap="round" stroke-linejoin="round"/>
<path d="M166.544 28.9811C166.651 29.7273 166.317 30.3905 165.795 30.4681C165.274 30.543 164.763 30.0028 164.654 29.2566C164.544 28.5104 164.881 27.8472 165.402 27.7696C165.924 27.6947 166.435 28.235 166.544 28.9811Z" fill="#755C42"/>
<path d="M179.02 27.6278C179.131 28.3802 178.79 29.0541 178.263 29.1325C177.735 29.2083 177.218 28.6616 177.107 27.9065C176.996 27.1542 177.337 26.4803 177.865 26.4045C178.392 26.3287 178.909 26.8754 179.02 27.6305V27.6278Z" fill="#755C42"/>
<path opacity="0.3" d="M169.124 29.3841C169.233 32.4188 166.862 34.9625 163.831 35.0712C160.801 35.1798 158.253 32.8092 158.144 29.7785C158.036 26.7479 160.406 24.2002 163.437 24.0915C166.472 23.9828 169.015 26.3534 169.124 29.3841V29.3841Z" fill="white"/>
<path d="M169.124 29.3841C169.233 32.4188 166.862 34.9625 163.831 35.0712C160.801 35.1798 158.253 32.8092 158.144 29.7785C158.036 26.7479 160.406 24.2002 163.437 24.0915C166.472 23.9828 169.015 26.3534 169.124 29.3841V29.3841Z" stroke="#EB5656" stroke-width="0.615797" stroke-linecap="round" stroke-linejoin="round"/>
<path opacity="0.3" d="M183.929 27.9505C184.037 30.9812 181.667 33.5289 178.636 33.6376C175.605 33.7463 173.058 31.3756 172.949 28.345C172.84 25.3143 175.211 22.7666 178.242 22.6579C181.276 22.5492 183.82 24.9198 183.929 27.9505V27.9505Z" fill="white"/>
<path d="M183.929 27.9505C184.037 30.9812 181.667 33.5289 178.636 33.6376C175.605 33.7463 173.058 31.3756 172.949 28.345C172.84 25.3143 175.211 22.7666 178.242 22.6579C181.276 22.5492 183.82 24.9198 183.929 27.9505V27.9505Z" stroke="#EB5656" stroke-width="0.615797" stroke-linecap="round" stroke-linejoin="round"/>
<path d="M169.008 28.4826C170.654 27.6052 172.948 27.9593 172.948 27.9593" stroke="#EB5656" stroke-width="0.615797" stroke-linecap="round" stroke-linejoin="round"/>
<path d="M183.719 26.5805L191.998 25.5703" stroke="#EB5656" stroke-width="0.615797" stroke-linecap="round" stroke-linejoin="round"/>
<path d="M158.336 31.0437L162.586 29.8242" stroke="#EB5656" stroke-width="0.615797" stroke-linecap="round" stroke-linejoin="round"/>
<g style="mix-blend-mode:multiply" opacity="0.6">
<path d="M170.814 31.5342C171.112 32.2506 168.122 33.6995 170.859 34.5649" stroke="#E9B6A6" stroke-width="0.466879" stroke-linecap="round" stroke-linejoin="round"/>
</g>
<path d="M169.172 38.2094C171.458 38.6683 178.526 37.332 178.526 37.332C176.674 39.2317 174.42 40.3869 172.613 40.4271C170.874 40.4633 169.172 38.2135 169.172 38.2135V38.2094Z" fill="#212731"/>
<g style="mix-blend-mode:multiply" opacity="0.6">
<path d="M172.82 41.1591C173.943 41.5415 174.982 40.7969 174.982 40.7969C174.326 42.2297 172.82 41.1591 172.82 41.1591Z" fill="#E9B6A6"/>
</g>
<path d="M169.734 38.278C169.734 38.278 170.004 38.9501 170.423 39.091C170.845 39.2319 175.796 38.8294 176.919 38.4269C177.949 38.0566 178.525 37.3281 178.525 37.3281C178.525 37.3281 173.236 38.3303 169.734 38.278V38.278Z" fill="white"/>
</g>
<path d="M153.312 155.031L197.695 155.5L192.625 189.75H161.75L153.312 155.031Z" fill="#2B6BB0"/>
<path d="M192.561 189.751H174.25L189.562 155.376C198.188 139.251 197.749 155.376 197.749 155.376L192.561 189.751Z" fill="#0E2C5B"/>
</g>
<defs>
<filter id="filter0_dd_455_281399" x="40.3703" y="15.1588" width="108.728" height="78.1826" filterUnits="userSpaceOnUse" color-interpolation-filters="sRGB">
<feFlood flood-opacity="0" result="BackgroundImageFix"/>
<feColorMatrix in="SourceAlpha" type="matrix" values="0 0 0 0 0 0 0 0 0 0 0 0 0 0 0 0 0 0 127 0" result="hardAlpha"/>
<feOffset dy="3.20003"/>
<feGaussianBlur stdDeviation="1.60001"/>
<feColorMatrix type="matrix" values="0 0 0 0 0 0 0 0 0 0 0 0 0 0 0 0 0 0 0.1 0"/>
<feBlend mode="multiply" in2="BackgroundImageFix" result="effect1_dropShadow_455_281399"/>
<feColorMatrix in="SourceAlpha" type="matrix" values="0 0 0 0 0 0 0 0 0 0 0 0 0 0 0 0 0 0 127 0" result="hardAlpha"/>
<feOffset dy="0.640005"/>
<feGaussianBlur stdDeviation="0.640005"/>
<feColorMatrix type="matrix" values="0 0 0 0 0 0 0 0 0 0 0 0 0 0 0 0 0 0 0.1 0"/>
<feBlend mode="multiply" in2="effect1_dropShadow_455_281399" result="effect2_dropShadow_455_281399"/>
<feBlend mode="normal" in="SourceGraphic" in2="effect2_dropShadow_455_281399" result="shape"/>
</filter>
<filter id="filter1_d_455_281399" x="63.9252" y="21.5954" width="82.423" height="70.5675" filterUnits="userSpaceOnUse" color-interpolation-filters="sRGB">
<feFlood flood-opacity="0" result="BackgroundImageFix"/>
<feColorMatrix in="SourceAlpha" type="matrix" values="0 0 0 0 0 0 0 0 0 0 0 0 0 0 0 0 0 0 127 0" result="hardAlpha"/>
<feOffset dy="1.74051"/>
<feGaussianBlur stdDeviation="1.74051"/>
<feColorMatrix type="matrix" values="0 0 0 0 0 0 0 0 0 0 0 0 0 0 0 0 0 0 0.05 0"/>
<feBlend mode="normal" in2="BackgroundImageFix" result="effect1_dropShadow_455_281399"/>
<feBlend mode="normal" in="SourceGraphic" in2="effect1_dropShadow_455_281399" result="shape"/>
</filter>
<filter id="filter2_d_455_281399" x="63.9252" y="63.4118" width="82.423" height="30.7081" filterUnits="userSpaceOnUse" color-interpolation-filters="sRGB">
<feFlood flood-opacity="0" result="BackgroundImageFix"/>
<feColorMatrix in="SourceAlpha" type="matrix" values="0 0 0 0 0 0 0 0 0 0 0 0 0 0 0 0 0 0 127 0" result="hardAlpha"/>
<feOffset dy="1.74051"/>
<feGaussianBlur stdDeviation="1.74051"/>
<feColorMatrix type="matrix" values="0 0 0 0 0 0 0 0 0 0 0 0 0 0 0 0 0 0 0.05 0"/>
<feBlend mode="normal" in2="BackgroundImageFix" result="effect1_dropShadow_455_281399"/>
<feBlend mode="normal" in="SourceGraphic" in2="effect1_dropShadow_455_281399" result="shape"/>
</filter>
<clipPath id="clip0_455_281399">
<rect width="299" height="305" fill="white"/>
</clipPath>
<clipPath id="clip1_455_281399">
<rect x="43.5703" y="15.7988" width="102.328" height="71.1424" rx="3.48103" fill="white"/>
</clipPath>
<clipPath id="clip2_455_281399">
<rect width="110.908" height="155.736" fill="white" transform="translate(107.797)"/>
</clipPath>
</defs>
</svg>
