<svg width="299" height="305" viewBox="0 0 299 305" fill="none" xmlns="http://www.w3.org/2000/svg">
<g clip-path="url(#clip0_493_282357)">
<path d="M241.474 93.72C239.593 93.3243 236.957 93.7804 234.372 94.2593L55.8574 197.325C55.7014 197.681 55.558 198.05 55.4573 198.446C54.7934 200.915 55.3417 203.763 55.9624 206.465C58.9869 219.522 64.0591 232.553 72.024 243.609C79.9889 254.664 91.0365 263.615 102.953 266.879C109.031 268.542 115.209 268.731 121.235 270.854C139.735 277.367 153.386 300.657 172.134 303.83C180.769 305.291 188.853 302.001 195.607 297.354C201.916 293.01 207.492 287.341 210.89 280.012C214.442 272.36 215.469 263.319 217.085 254.653C220.327 237.283 226.582 220.201 239.244 210.318C247.298 204.03 257.41 201.064 265.843 195.331C275.048 189.074 282.081 179.503 285.831 168.137C288.231 160.857 289.296 152.639 287.433 144.436C284.673 132.305 276.001 121.924 266.953 113.359C260.711 107.449 249.317 95.3717 241.474 93.72Z" fill="#7EC0EE"/>
<path d="M30.1599 203.613C81.9141 237.447 280.914 224.697 296.164 164.697C299.288 149.447 296.784 135.701 293.29 121.218C289.796 106.735 281.82 93.1204 270.084 84.9159C264.096 80.7326 257.274 78.0032 251.571 73.3757C234.059 59.1719 230.199 29.9467 210.772 19.0282C201.825 13.9999 191.165 14.0153 181.327 15.9532C172.136 17.7672 163.116 21.2257 155.72 27.2623C147.994 33.5631 142.412 42.3091 136.355 50.4331C124.21 66.7158 108.835 81.4689 89.8186 86.2906C77.7224 89.3583 64.9512 88.2124 52.7021 90.5623C39.3321 93.1261 26.7689 99.9428 16.9993 109.929C10.744 116.325 5.52313 124.221 3.5873 133.305C0.728903 146.74 5.34452 160.83 11.2723 173.232C15.36 181.789 22.1919 198.716 30.1599 203.613Z" fill="#BEE3F8"/>
<mask id="mask0_493_282357" style="mask-type:alpha" maskUnits="userSpaceOnUse" x="40" y="4" width="189" height="136">
<rect width="188" height="135" transform="translate(40.4609 4.65234)" fill="white"/>
</mask>
<g mask="url(#mask0_493_282357)">
<path d="M71.8154 119.618C67.8312 125.433 65.2997 146.335 83.1336 151.894C103.961 151.894 120.412 147.155 117.892 137.835C116.682 133.345 102.619 125.617 89.0542 121.872C85.8409 120.989 84.4748 112.26 81.8507 111.799C77.2646 110.961 72.3532 118.854 71.8154 119.618Z" fill="#2C5281"/>
<path d="M91.1898 33.8738C91.2313 32.5007 90.9192 31.1727 90.1651 29.8457C87.8143 25.7761 81.5338 24.1065 77.3393 26.6841C71.5554 30.2838 70.729 37.1503 63.919 35.9247C63.6094 35.8811 63.4774 36.1914 63.5664 36.4569C66.7225 45.3965 80.2546 48.0251 87.0498 41.6774C88.4617 40.3457 89.6082 38.8818 90.3125 37.3302C88.29 42.9149 82.5953 46.9129 76.5385 46.5715C76.45 46.5717 76.4503 46.7045 76.5387 46.7043C80.3855 47.1391 84.0962 45.8468 86.92 43.1392C89.3027 40.8754 91.4618 37.3277 91.1898 33.8738Z" fill="#603D3D"/>
<path d="M89.0121 29.0528C85.4725 27.3781 81.4947 27.741 78.139 29.7405C73.6795 32.4507 69.3147 38.3926 63.4748 35.8818C63.2536 35.7937 63.1217 36.1482 63.3429 36.2362C66.8822 37.7781 70.4156 36.1766 73.2848 34.0453C75.536 32.3581 77.6096 30.3171 80.3041 29.2488C83.131 28.1358 86.093 28.2622 88.9682 29.1857C89.0566 29.1855 89.0563 29.0527 89.0121 29.0528Z" fill="#371B1B"/>
<path d="M89.8507 29.6707C89.8947 29.582 89.762 29.5381 89.7179 29.6267C87.6929 33.9698 81.5541 36.9051 77.0916 38.0659C72.5408 39.2711 68.0308 38.7497 63.7394 36.8995C63.6951 36.8554 63.6511 36.9883 63.6953 36.9882C68.3414 39.3245 73.7788 39.4013 78.6827 37.9296C82.9683 36.7249 88.1793 34.013 89.8507 29.6707Z" fill="#371B1B"/>
<path d="M90.7501 31.2617C90.75 31.1732 90.6173 31.1735 90.6175 31.262C89.35 38.7933 81.6253 44.7 74.0656 44.495C73.933 44.4953 73.8892 44.7168 74.066 44.7164C81.5379 45.2316 90.2789 39.057 90.7501 31.2617Z" fill="#371B1B"/>
<path d="M90.6622 30.7723C88.9309 27.0119 85.2126 24.407 80.9698 24.8146C76.285 25.2674 72.1812 28.9517 69.9345 32.8977C69.9346 32.942 69.9346 32.942 69.9788 32.9419C72.0944 29.749 75.0507 26.9971 78.7172 25.7493C83.5322 24.1006 88.0904 26.7037 90.4414 30.8614C90.4859 30.9941 90.7067 30.9051 90.6622 30.7723Z" fill="#603D3D"/>
<path d="M129.148 40.7549C122.56 39.8831 123.785 33.3257 119.531 28.33C119.354 28.1089 119.177 27.9321 118.999 27.7553C119.575 28.1527 120.15 28.6387 120.682 29.2576C122.72 31.6449 123.212 34.6556 124.588 37.3986C124.633 37.4871 124.765 37.4425 124.721 37.354C123.388 33.9908 122.85 30.4045 120.061 27.886C118.245 26.2068 115.856 25.459 113.425 25.4641C111.037 25.292 108.563 25.9616 106.842 27.5154C105.915 28.3146 105.298 29.2903 104.903 30.3541C101.692 38.643 109.489 47.2186 118.021 47.112C118.109 47.1118 118.109 46.9789 118.02 46.9348C112.272 46.3712 107.58 43.1038 105.67 38.3246C105.847 38.6785 105.981 38.9882 106.202 39.3421C110.594 47.1277 123.815 48.6941 129.326 41.3746C129.458 41.1529 129.413 40.7986 129.148 40.7549Z" fill="#603D3D"/>
<path d="M106.704 27.9147C101.453 33.0638 104.612 43.3329 110.895 46.0657C110.939 46.0656 110.983 46.0212 110.939 45.977C104.92 42.8451 102.47 33.3717 106.969 28.0913C107.146 27.9581 106.88 27.7372 106.704 27.9147Z" fill="#63513D"/>
<path d="M127.756 41.9946C122.986 44.0421 117.594 44.6295 112.814 42.0271C107.681 39.204 105.814 34.1154 105.759 28.4914C105.759 28.4471 105.67 28.4473 105.671 28.4916C105.455 31.1491 105.813 33.6725 106.746 35.929C108.57 42.1249 115.077 46.3178 121.486 45.9496C121.619 45.9493 121.575 45.7722 121.486 45.7724C116.358 45.695 112.331 43.6224 109.539 40.0857C110.248 40.837 111.089 41.4994 112.019 42.0731C116.754 45.0299 122.987 44.8835 127.801 42.1274C127.889 42.0829 127.889 41.95 127.756 41.9946Z" fill="#371B1B"/>
<path d="M129.357 41.1962C121.932 42.2309 121.43 34.1282 117.487 30.0185C114.918 27.3228 110.849 26.2246 107.315 27.2951C107.27 27.2952 107.271 27.428 107.359 27.3835C110.32 26.89 113.15 27.2824 115.673 29.0482C118.152 30.7699 119.218 33.5131 120.594 36.1228C122.457 39.6613 125.247 42.0908 129.401 41.4175C129.534 41.373 129.489 41.1516 129.357 41.1962Z" fill="#371B1B"/>
<path d="M114.483 80.8738C116.835 85.8288 119.677 92.1556 120.031 92.7305C120.342 93.2613 136.663 97.7874 140.6 99.3288C141.927 99.5474 145.686 100.292 149.093 101.968C150.509 102.673 154.01 107.448 152.863 108.558C152.731 108.691 152.598 108.736 152.421 108.736C152.732 109.488 152.778 110.153 152.292 110.508C151.983 110.73 151.629 110.642 151.275 110.422C151.364 110.82 151.277 111.13 150.923 111.308C150.305 111.575 149.11 110.648 148.047 109.587C148.667 110.427 149.067 111.268 148.492 111.535C147.079 112.291 144.864 109.594 143.137 108.004C142.251 107.164 140.834 106.148 140.393 106.769C140.129 107.124 140.749 107.92 141.281 108.318C142.343 109.068 143.804 110.084 143.363 110.705C142.702 111.68 140.002 110.269 139.073 109.784C138.808 109.652 138.542 109.342 138.232 108.944C138.143 108.944 138.099 108.944 138.055 108.945C137.568 108.768 135.526 104.344 134.73 104.036C132.651 103.288 123.456 103.44 119.52 102.43C116.954 101.772 114.961 99.7832 113.499 98.192C111.727 96.203 101.888 83.0269 101.961 74.9666C101.908 70.4495 112.84 77.423 114.483 80.8738Z" fill="#CF9C77"/>
<path d="M143.127 104.773C144.144 105.169 145.162 105.609 145.915 106.405C146.801 107.333 147.334 108.66 148.087 109.676C148.088 109.721 148.043 109.721 148.043 109.721C147.689 109.19 147.29 108.704 146.891 108.218C146.536 107.732 146.182 107.245 145.783 106.759C145.03 105.92 144.189 105.213 143.127 104.773Z" fill="#874B1F"/>
<path d="M144.403 103.09C145.509 103.663 146.748 104.191 147.722 104.986C148.785 105.869 149.45 107.019 150.16 108.169C150.559 108.877 150.826 109.629 151.225 110.336C151.225 110.381 151.181 110.381 151.181 110.381C150.471 109.187 149.717 108.037 148.964 106.888C148.254 105.826 147.368 104.943 146.262 104.192C145.642 103.795 145.023 103.442 144.403 103.09C144.359 103.045 144.359 103.09 144.403 103.09Z" fill="#874B1F"/>
<path d="M145.999 101.714C147.061 102.198 148.078 102.373 148.964 103.213C150.115 104.317 151.091 105.953 151.446 106.528C151.845 107.147 152.112 108.076 152.467 108.74C152.467 108.784 152.422 108.784 152.422 108.784C151.624 107.325 150.737 105.91 149.762 104.583C149.274 103.965 148.743 103.346 148.123 102.904C147.415 102.419 146.707 102.066 145.999 101.714Z" fill="#874B1F"/>
<path d="M99.5929 90.9996L116.729 81.041C116.729 81.041 111.348 64.6223 103.819 57.9517C96.2895 51.281 93.2928 56.5136 94.4609 66.2543C95.5849 75.995 99.5929 90.9996 99.5929 90.9996Z" fill="#E26969"/>
<path d="M111.837 83.7523L99.6032 91.0425C99.6032 91.0425 95.5948 76.0367 94.4706 66.2952C93.7068 60.0076 94.7152 55.5764 97.5439 55.0388L111.837 83.7523Z" fill="#A83B3B"/>
<path d="M111.93 130.435L68.5976 127.825C68.5976 127.825 66.2393 74.275 79.8706 58.668C80.1795 58.324 80.4883 57.9801 80.7971 57.6361C80.8411 57.5502 80.9295 57.5071 80.9736 57.4641C82.165 56.2599 83.357 55.3561 84.6379 54.7097C84.8587 54.5804 85.1237 54.4511 85.3888 54.3647C90.6454 51.9931 95.9994 54.2129 100.205 57.2506C105.872 61.3579 111.855 68.4256 109.231 83.2362C108.137 89.3752 102.662 115.864 102.662 115.864L111.93 130.435Z" fill="#E26969"/>
<path d="M70.86 75.4667C68.6187 82.5568 63.8916 107.719 67.8332 111.474C71.7749 115.273 107.129 108.595 111.506 108.585C113.495 108.58 112.601 103.224 110.478 102.963C108.71 102.746 78.1639 104.011 77.8977 103.481C77.5871 102.906 79.4259 93.381 80.8696 85.3185C82.4892 76.7243 71.8708 72.3204 70.86 75.4667Z" fill="#CF9C77"/>
<path d="M117.056 100.298C119.884 99.8927 120.681 100.245 122.888 98.6019C124.345 97.5361 125.628 98.0199 124.791 99.7038C123.425 102.451 119.891 103.743 118.521 103.835L117.056 100.298Z" fill="#CF9C77"/>
<path d="M109.545 103.019C109.545 103.019 112.724 101.241 115.685 100.526C117.762 100.034 122.579 99.2251 126.743 103.95C128.072 105.451 128.121 107.575 126.129 106.297C124.536 105.327 123.694 104.356 122.632 104.049C122.632 104.049 123.212 107.056 122.109 108.077C121.624 108.521 120.211 109.719 119.019 110.519C119.019 110.519 118.798 110.298 118.532 109.989C118.532 109.989 112.431 109.783 109.334 108.463L109.545 103.019Z" fill="#CF9C77"/>
<path d="M117.714 100.343C118.688 100.872 120.769 101.974 122.142 103.476C123.693 105.154 126.176 108.779 124.94 109.889C124.013 110.688 122.949 109.407 122.949 109.407C122.949 109.407 123.66 111.132 122.688 111.71C121.805 112.199 121.007 111.183 121.007 111.183C121.007 111.183 121.274 112.289 120.302 112.645C119.153 113.047 118.795 110.613 117.29 109.996C116.936 109.864 117.714 100.343 117.714 100.343Z" fill="#CF9C77"/>
<path d="M120.061 104.859C120.902 105.477 122.453 107.421 122.899 109.456C122.899 109.501 122.899 109.545 122.855 109.501C121.923 107.378 120.637 105.566 120.061 104.859Z" fill="#874B1F"/>
<path d="M118.482 106.413C119.147 107.031 120.654 109.108 121.056 111.144C121.056 111.188 121.011 111.233 121.011 111.189C120.123 108.977 119.014 107.209 118.482 106.413Z" fill="#874B1F"/>
<path d="M115.385 109.643C115.385 109.643 117.153 109.594 117.862 110.345C117.862 110.345 118.615 111.007 119.103 111.892C119.591 112.776 120.254 112.819 120.695 112.464C121.137 112.064 121.047 111.223 121.047 111.223C121.047 111.223 121.8 112.24 122.728 111.75C123.655 111.261 122.989 109.448 122.989 109.448C122.989 109.448 123.875 110.641 124.847 110.063C125.818 109.485 125.283 107.228 122.713 104.091C122.713 104.091 123.377 104.267 124.838 105.414C126.299 106.562 127.184 107.003 127.581 106.603C127.978 106.204 127.578 105.231 127.578 105.231C127.001 103.86 124.92 102.138 123.637 101.388C123.637 101.388 124.828 100.19 125.003 99.0384C125.177 97.8868 123.542 98.2449 123.542 98.2449C122.262 98.912 121.777 99.5773 120.583 99.8014C119.257 100.07 115.854 100.255 113.159 101.369L109.625 103.015" stroke="#FFDEDE" stroke-width="0.446418" stroke-miterlimit="10"/>
<path opacity="0.7" d="M68.2663 86.804C69.1411 82.019 70.1053 77.7652 70.8523 75.4606C71.8186 72.314 82.481 76.676 80.9065 85.3157C80.7752 85.9803 80.6439 86.6449 80.5568 87.3537C78.3898 86.8711 73.835 86.1279 68.2663 86.804Z" fill="#874B1F"/>
<path d="M64.7682 82.5178L83.7905 88.0998C83.7905 88.0998 89.066 72.2779 89.4005 62.2242C89.735 52.1706 80.9863 55.0244 74.2352 62.1252C67.4841 69.226 64.7682 82.5178 64.7682 82.5178Z" fill="#E26969"/>
<path d="M88.2735 72.1957C88.2735 72.1514 88.1849 72.1073 88.1851 72.1959C86.6915 77.3811 82.5103 87.71 81.9795 87.6226C81.8911 87.6228 81.8471 87.7558 81.9356 87.7556C82.5549 87.8871 83.1744 88.1071 83.7497 88.3273C83.8824 88.3713 84.0593 88.3709 84.1474 88.1936C85.2472 85.2237 86.1259 82.21 86.8717 79.108C87.0919 78.6204 88.0111 73.7021 88.2735 72.1957Z" fill="#A83B3B"/>
<path d="M89.5688 55.6738C89.6595 56.8693 94.2297 65.3177 99.6251 65.8368C101.394 66.0099 102.703 56.3966 102.703 56.3966L102.967 55.7317L106.574 46.1131L95.9893 37.0142L94.4393 35.7777C94.4393 35.7777 93.6043 38.4811 92.6379 41.8492C92.594 42.0264 92.5501 42.1594 92.5062 42.3366C92.4623 42.5139 92.3742 42.6912 92.3303 42.8685C92.1986 43.3559 92.0227 43.8878 91.891 44.3752C91.7591 44.7741 91.6713 45.1286 91.5837 45.5717C91.4518 45.9706 91.3641 46.3694 91.2765 46.8124C90.2229 50.845 89.5236 55.1424 89.5688 55.6738Z" fill="#CF9C77"/>
<path opacity="0.7" d="M92.6356 41.8017C94.3756 50.0788 100.22 54.1838 102.92 55.6833L106.527 46.0655L95.9427 36.9672L94.3928 35.7309C94.437 35.7308 93.602 38.434 92.6356 41.8017Z" fill="#874B1F"/>
<path d="M122.284 32.1264C121.39 50.1094 110.517 51.6395 106.67 51.4266C103.133 51.2573 91.1939 50.1767 90.2312 32.1978C89.2685 14.2189 97.8795 8.92944 105.97 8.91141C114.016 8.93776 123.178 14.1434 122.284 32.1264Z" fill="#CF9C77"/>
<path d="M90.4131 31.8349C94.6555 30.9839 95.7974 27.0404 95.7974 27.0404C111.181 26.6066 116.247 17.0749 116.247 17.0749C119.224 25.127 121.879 26.4936 122.279 27.6882C122.279 27.6882 123.548 20.6891 121.195 15.381C119.108 10.6921 113.79 3.84098 105.437 4.92281C100.708 5.55355 91.1605 6.19531 88.2155 15.1465C83.2046 30.4344 90.4131 31.8349 90.4131 31.8349Z" fill="#603D3D"/>
<path d="M116.469 16.4141C115.942 18.4072 114.84 20.2246 113.428 21.7329C112.017 23.2854 110.251 24.4404 108.351 25.2858L106.894 25.8646C106.408 26.0427 105.877 26.1325 105.391 26.2664C104.375 26.5786 103.359 26.6694 102.342 26.8046C101.326 26.8954 100.265 26.8978 99.2479 26.9444C98.231 26.8582 97.214 26.772 96.1971 26.6858C97.2138 26.6392 98.2306 26.6369 99.2473 26.6346C100.264 26.5437 101.281 26.4971 102.297 26.362C104.286 26.0476 106.274 25.6004 108.129 24.7551C109.985 23.9541 111.662 22.8436 113.118 21.4237C114.53 20.0483 115.721 18.3192 116.469 16.4141Z" fill="#263238"/>
<path d="M93.1533 32.4032C93.1533 32.4032 90.0467 26.2993 87.3072 27.3243C84.6118 28.3492 86.3964 36.8476 89.2291 38.3466C92.0618 39.8456 93.4719 37.2737 93.4719 37.2737L93.1533 32.4032Z" fill="#CF9C77"/>
<path opacity="0.7" d="M87.8781 29.7594C87.8339 29.7595 87.834 29.8038 87.8341 29.8481C89.7817 30.9949 90.6256 33.0742 91.1158 35.1543C90.5837 34.3142 89.8311 33.7846 88.6826 34.363C88.6384 34.4074 88.6828 34.4958 88.7271 34.4957C89.6112 34.4494 90.1864 34.6694 90.6742 35.4211C91.0289 35.9517 91.207 36.6155 91.4291 37.1906C91.518 37.4119 91.8715 37.3225 91.8269 37.1012L91.8268 37.0569C92.2198 34.3989 90.6648 30.4171 87.8781 29.7594Z" fill="#874B1F"/>
<path d="M109.836 32.5497C109.66 33.1256 109.086 33.4368 108.511 33.261C107.935 33.0852 107.625 32.5104 107.801 31.9345C107.976 31.3586 108.551 31.0475 109.126 31.2233C109.701 31.3548 110.012 31.9739 109.836 32.5497Z" fill="#371B1B"/>
<path d="M120.062 33.0615C119.887 33.6373 119.312 33.9485 118.737 33.7727C118.162 33.5969 117.851 33.0221 118.027 32.4462C118.203 31.8704 118.777 31.5592 119.352 31.735C119.927 31.8665 120.238 32.4856 120.062 33.0615Z" fill="#371B1B"/>
<path d="M106.165 29.8956C106.253 29.8954 106.341 29.8509 106.43 29.8065C106.43 29.8065 108.107 28.3421 110.053 29.0015C110.274 29.0895 110.495 28.9563 110.583 28.779C110.671 28.5575 110.538 28.3366 110.361 28.2484C107.972 27.3688 106.03 29.0993 105.942 29.188C105.766 29.3211 105.766 29.5867 105.899 29.7634C105.943 29.8518 106.076 29.8958 106.165 29.8956Z" fill="#603D3D"/>
<path d="M121.02 30.0865C121.153 30.0862 121.241 30.0418 121.329 29.953C121.461 29.7757 121.417 29.5103 121.284 29.3778C121.195 29.2895 119.159 27.701 116.818 28.68C116.597 28.769 116.509 28.9905 116.598 29.2115C116.687 29.4326 116.908 29.5206 117.129 29.4316C119.028 28.6307 120.755 29.9986 120.799 29.9985C120.843 30.0869 120.932 30.0867 121.02 30.0865Z" fill="#603D3D"/>
<path d="M116.275 42.1035C114.464 42.5944 111.549 43.619 108.008 41.0153C107.698 40.7947 107.256 41.1498 107.434 41.3707C108.63 43.0501 111.774 46.1416 116.63 42.5896C116.895 42.3677 116.629 42.0142 116.275 42.1035Z" fill="#874B1F"/>
<path d="M113.218 37.2803C113.262 37.2802 113.306 37.2801 113.35 37.28C113.394 37.2799 113.439 37.2798 113.483 37.2797C113.527 37.2796 113.527 37.2796 113.571 37.2795C113.615 37.2794 113.66 37.2793 113.66 37.2793C113.704 37.2792 113.748 37.2791 113.792 37.279C113.836 37.2789 113.881 37.2788 113.925 37.2787L113.969 37.2786C114.013 37.2785 114.057 37.2784 114.057 37.2341L114.102 37.234C114.146 37.2339 114.146 37.1896 114.19 37.1896L114.234 37.1452C114.234 37.1452 114.278 37.1451 114.278 37.1008C114.322 37.1007 114.322 37.0564 114.366 37.012C114.41 36.9676 114.41 36.9233 114.454 36.8789C114.499 36.8346 114.543 36.7902 114.587 36.7015C114.675 36.6127 114.852 36.6566 114.896 36.7451C114.941 36.8336 114.985 36.9221 114.985 37.0107C114.985 37.0992 114.941 37.2322 114.941 37.3208C114.853 37.5424 114.721 37.7199 114.501 37.8532C114.324 37.9865 114.103 38.0313 113.882 38.0317C113.749 38.032 113.661 38.0322 113.528 37.9882C113.44 37.9441 113.351 37.9443 113.263 37.8559C113.219 37.856 113.219 37.8117 113.174 37.7675C113.13 37.7233 113.086 37.6349 113.086 37.5906C113.086 37.5463 113.086 37.5463 113.041 37.5021C112.953 37.4137 113.085 37.2805 113.218 37.2803Z" fill="#874B1F"/>
<path d="M108.61 31.2666C108.61 31.2666 107.815 31.8001 107.371 31.3136C106.928 30.827 107.373 31.9783 107.859 32.1102C108.346 32.2422 108.61 31.2666 108.61 31.2666Z" fill="#371B1B"/>
<path d="M119.342 31.958C119.342 31.958 120.006 32.1781 120.226 31.7788C120.447 31.3795 120.58 31.7338 120.448 31.9556C120.316 32.1775 119.653 32.5778 119.653 32.5778L119.342 31.958Z" fill="#371B1B"/>
<path d="M112.812 14.6914C112.812 14.6914 107.079 20.9044 96.9175 23.5831C96.9175 23.5831 111.181 16.7766 112.812 14.6914Z" fill="#371B1B"/>
<path d="M92.7935 20.4921C92.4408 20.98 101.481 10.421 113.243 12.168C113.243 12.2123 100.86 8.96081 92.7935 20.4921Z" fill="#371B1B"/>
<path d="M110.455 9.69649C110.455 9.69649 102.051 7.18924 94.5516 14.6018C94.5516 14.6018 99.6631 6.61839 110.455 9.69649Z" fill="#371B1B"/>
<path d="M112.255 114.136L106.906 114.148L106.9 110.651L112.248 110.638L112.255 114.136Z" fill="#212731"/>
<path d="M119.192 113.878L113.844 113.891L113.837 110.393L119.186 110.38L119.192 113.878Z" fill="#212731"/>
<path d="M126.13 113.62L120.781 113.633L120.775 110.135L126.123 110.123L126.13 113.62Z" fill="#212731"/>
<path d="M133.028 113.366L127.68 113.379L127.673 109.881L133.022 109.869L133.028 113.366Z" fill="#212731"/>
<path d="M139.981 113.112L134.633 113.125L134.626 109.627L139.975 109.615L139.981 113.112Z" fill="#212731"/>
<path d="M146.911 112.898L141.562 112.91L141.556 109.413L146.904 109.4L146.911 112.898Z" fill="#212731"/>
<path d="M153.88 112.648L148.531 112.66L148.525 109.163L153.873 109.15L153.88 112.648Z" fill="#212731"/>
<path d="M160.802 112.39L155.453 112.402L155.447 108.905L160.795 108.892L160.802 112.39Z" fill="#212731"/>
<path d="M167.747 112.136L162.398 112.148L162.392 108.651L167.74 108.638L167.747 112.136Z" fill="#212731"/>
<path d="M169.058 116.005L105.582 116.146L105.573 111.902L169.047 109.992L169.058 116.005Z" fill="#212731"/>
<path d="M205.316 95.991L138.043 102.123L148.559 52.2856L215.312 52.1328L205.316 95.991Z" fill="#63676E"/>
<path d="M207.784 95.9871L140.467 102.119L151.028 52.2817L217.781 52.1289L207.784 95.9871Z" fill="#212731"/>
<path d="M188.382 115.921L155.583 115.996L155.578 113.477L188.375 112.297L188.382 115.921Z" fill="#63676E"/>
<path d="M197.31 115.909L179.715 115.949L169.007 88.0764L186.647 88.036L197.31 115.909Z" fill="#63676E"/>
<path d="M200.224 115.901L182.584 115.942L171.921 88.0686L189.561 88.0282L200.224 115.901Z" fill="#363C44"/>
<path d="M202.424 117.849L210.656 117.832L210.726 152.026L202.493 152.042L202.424 117.849Z" fill="#64B4ED"/>
<path d="M57.9653 117.848L66.1953 117.832L66.2687 152.026L58.0387 152.042L57.9653 117.848Z" fill="#64B4ED"/>
<path d="M43.2078 116.212L225.956 115.776C227.477 115.772 228.713 117.003 228.716 118.525C228.718 120.046 227.487 121.283 225.965 121.286L43.2174 121.722C41.6958 121.726 40.4602 120.495 40.4575 118.974C40.4549 117.452 41.6862 116.216 43.2078 116.212Z" fill="#48A1DF"/>
<path d="M50.3594 121.708L217.953 121.309L217.968 129.608C217.969 130.713 217.076 131.61 215.971 131.613L52.3773 132.003C51.2728 132.006 50.3758 131.113 50.3739 130.008L50.3594 121.708Z" fill="#90CEF4"/>
</g>
</g>
<defs>
<clipPath id="clip0_493_282357">
<rect width="299" height="305" fill="white"/>
</clipPath>
</defs>
</svg>
